<?xml version="1.0" standalone="no"?><!DOCTYPE svg PUBLIC "-//W3C//DTD SVG 1.1//EN" "http://www.w3.org/Graphics/SVG/1.1/DTD/svg11.dtd"><svg class="icon" width="200px" height="200.00px" viewBox="0 0 1024 1024" version="1.1" xmlns="http://www.w3.org/2000/svg"><path d="M34.48 26.56m151.36 0l659.12 0q151.36 0 151.36 151.36l0 659.12q0 151.36-151.36 151.36l-659.12 0q-151.36 0-151.36-151.36l0-659.12q0-151.36 151.36-151.36Z" fill="#F9ED85" /><path d="M691.44 516.24C664 510.88 677.28 496 677.28 496S704 451.68 672 419.36c-40-40-137.28 5.12-137.28 5.12-37.12 11.52-27.28-5.28-22-33.84 0-33.6-11.52-90.56-110.4-56.96s-184 152-184 152c-58.96 78.72-51.2 139.52-51.2 139.52 14.8 134.32 157.52 171.2 268.48 180 116.8 9.12 274.4-40 322.24-141.84s-38.72-141.6-66.4-147.12zM444.56 768c-115.92 5.44-209.6-52.72-209.6-130.08s93.68-139.6 209.6-144.88 209.92 42.4 209.92 120S560.64 762.32 444.56 768z" fill="#E42122" /><path d="M444.56 768c-115.92 5.44-209.6-52.72-209.6-130.08s93.68-139.6 209.6-144.88 209.92 42.4 209.92 120S560.64 762.32 444.56 768z" fill="#FFFFFF" /><path d="M421.44 544c-116.56 13.28-105.52 120-105.52 120a69.04 69.04 0 0 0 33.68 54.96c68.24 36.96 138.48 14.56 174-31.28S538.24 530.08 421.44 544zM392 696.88c-21.76 2.56-39.36-9.92-39.36-28.16a41.76 41.76 0 0 1 37.36-39.44c25.04-2.4 41.28 12.08 41.28 30.24S413.76 694.4 392 696.88z m68.8-58.48a13.44 13.44 0 0 1-20.32-1.92 17.2 17.2 0 0 1 4.88-22.24 14.08 14.08 0 0 1 21.52 1.92 18.16 18.16 0 0 1-6.08 22.24z" fill="#040000" /><path d="M860.24 455.04a26.72 26.72 0 0 0 0.88-6.72 204.32 204.32 0 0 0 2.56-31.2 208.88 208.88 0 0 0-208.72-208.72 28.88 28.88 0 0 0 0 57.68 150.96 150.96 0 0 1 148.48 178.64v3.36a28.8 28.8 0 0 0 56.64 7.12z" fill="#F39C25" /><path d="M769.92 427.92c0-3.6 0.64-7.12 0.64-10.8a115.68 115.68 0 0 0-115.6-115.6 24 24 0 0 0 0 48 67.52 67.52 0 0 1 67.52 67.52 61.84 61.84 0 0 1-0.56 8.64h0.56c0 0.96-0.56 1.76-0.56 2.8a24 24 0 0 0 47.52 3.2v-1.84-1.36c0-0.48 0.48-0.32 0.48-0.56z" fill="#F39C25" /></svg>