<?xml version="1.0" standalone="no"?><!DOCTYPE svg PUBLIC "-//W3C//DTD SVG 1.1//EN" "http://www.w3.org/Graphics/SVG/1.1/DTD/svg11.dtd"><svg class="icon" width="200px" height="200.00px" viewBox="0 0 1024 1024" version="1.1" xmlns="http://www.w3.org/2000/svg"><path d="M808.0896 894.5152H215.808c-73.216 0-130.2016-63.6416-122.112-136.448L153.3952 220.1088c6.912-62.208 59.4944-109.312 122.112-109.312h472.7808c62.6176 0 115.2 47.104 122.112 109.312l59.7504 537.9584c8.1408 72.8064-48.8448 136.448-122.0608 136.448z" fill="#1C87FF" /><path d="M786.944 854.4768H233.2672c-68.4544 0-121.7024-59.4944-114.176-127.5392l55.8592-502.8864C181.4016 165.888 230.6048 121.856 289.1264 121.856h441.9584c58.5216 0 107.7248 44.032 114.176 102.1952L901.12 726.8864c7.5776 68.0448-45.7216 127.5904-114.176 127.5904z" fill="#178FFC" /><path d="M760.5248 817.4592H242.1248c-64.1024 0-113.9712-55.7056-106.9056-119.4496l52.2752-470.8864C193.536 172.6976 239.616 131.4816 294.4 131.4816h413.8496c54.784 0 100.864 41.216 106.9056 95.6928l52.2752 470.8864c7.0656 63.6928-42.8032 119.3984-106.9056 119.3984z" fill="#2999FF" /><path d="M734.2592 780.6976H250.5216c-59.8016 0-106.3424-51.968-99.7376-111.4624l48.7936-439.3984c5.632-50.8416 48.5888-89.2928 99.7376-89.2928h386.1504c51.1488 0 94.1056 38.4512 99.7376 89.2928l48.7936 439.3984c6.6048 59.4944-39.936 111.4624-99.7376 111.4624z" fill="#32A6FC" /><path d="M672.7168 277.504c-33.8944 0-61.44 27.5456-61.44 61.44v18.1248c0 56.4224-45.8752 102.2976-102.2976 102.2976s-102.2976-45.8752-102.2976-102.2976V338.944c0-33.8944-27.5456-61.44-61.44-61.44s-61.44 27.5456-61.44 61.44v18.1248c0 124.16 101.0176 225.1776 225.1776 225.1776s225.1776-101.0176 225.1776-225.1776V338.944c0-33.8944-27.5456-61.44-61.44-61.44z" fill="#1C87FF" /><path d="M508.9792 559.2064c-111.4624 0-202.1376-90.6752-202.1376-202.1376V338.944c0-21.1968 17.2032-38.4 38.4-38.4s38.4 17.2032 38.4 38.4v18.1248c0 69.12 56.2176 125.3376 125.3376 125.3376s125.3376-56.2176 125.3376-125.3376V338.944c0-21.1968 17.2032-38.4 38.4-38.4 21.1968 0 38.4 17.2032 38.4 38.4v18.1248c0 111.4624-90.6752 202.1376-202.1376 202.1376z" fill="#C5E9FF" /><path d="M508.9792 546.4064c-104.3968 0-189.3376-84.9408-189.3376-189.3376V338.944c0-14.1312 11.4688-25.6 25.6-25.6s25.6 11.4688 25.6 25.6v18.1248c0 76.1856 61.952 138.1376 138.1376 138.1376s138.1376-61.952 138.1376-138.1376V338.944c0-14.1312 11.4688-25.6 25.6-25.6s25.6 11.4688 25.6 25.6v18.1248c0 104.3968-84.9408 189.3376-189.3376 189.3376z" fill="#FFFFFF" /></svg>