<?xml version="1.0" standalone="no"?><!DOCTYPE svg PUBLIC "-//W3C//DTD SVG 1.1//EN" "http://www.w3.org/Graphics/SVG/1.1/DTD/svg11.dtd"><svg class="icon" width="200px" height="200.00px" viewBox="0 0 1024 1024" version="1.1" xmlns="http://www.w3.org/2000/svg"><path d="M28.435692 28.435692m196.923077 0l573.282462 0q196.923077 0 196.923077 196.923077l0 573.282462q0 196.923077-196.923077 196.923077l-573.282462 0q-196.923077 0-196.923077-196.923077l0-573.282462q0-196.923077 196.923077-196.923077Z" fill="#FF720D" /><path d="M227.564308 474.269538q0 57.856 22.370461 110.749539a42.692923 42.692923 0 0 0 78.572308-33.240615q-15.635692-36.942769-15.635692-77.508924 0-82.471385 58.328615-140.760615Q429.489231 275.180308 512 275.180308q82.471385 0 140.8 58.28923 58.289231 58.328615 58.289231 140.8 0 82.471385-58.289231 140.8-58.328615 58.289231-140.8 58.289231-22.567385 0-44.347077-4.883692a42.653538 42.653538 0 1 0-18.904615 83.180308q31.113846 7.089231 63.251692 7.08923 117.838769 0 201.137231-83.337846 83.298462-83.298462 83.298461-201.137231 0-117.799385-83.298461-201.13723Q629.838769 189.833846 512 189.833846T310.862769 273.132308q-83.298462 83.337846-83.298461 201.13723z m365.016615 13.587693a94.011077 94.011077 0 0 1-104.999385 93.380923q-79.714462 71.876923-123.116307 202.082461a42.692923 42.692923 0 0 1-80.974769-26.978461q46.592-139.697231 132.01723-224.374154a94.011077 94.011077 0 1 1 177.073231-44.110769z" fill="#FFFFFF" /></svg>