<?xml version="1.0" standalone="no"?><!DOCTYPE svg PUBLIC "-//W3C//DTD SVG 1.1//EN" "http://www.w3.org/Graphics/SVG/1.1/DTD/svg11.dtd"><svg class="icon" width="200px" height="200.00px" viewBox="0 0 1024 1024" version="1.1" xmlns="http://www.w3.org/2000/svg"><path d="M0 0m170.666667 0l682.666666 0q170.666667 0 170.666667 170.666667l0 682.666666q0 170.666667-170.666667 170.666667l-682.666666 0q-170.666667 0-170.666667-170.666667l0-682.666666q0-170.666667 170.666667-170.666667Z" fill="#FF2E4D" /><path d="M229.248 452.992H181.632C185.813333 514.858667 170.666667 561.877333 170.666667 561.877333l25.6 46.506667c33.536-14.336 32.981333-155.434667 32.981333-155.434667v0.042667z m106.496 0s-0.853333 141.098667 32.981333 155.392l25.6-46.506667s-15.104-47.018667-11.008-108.928H335.744v0.042667z m-76.8 141.653333h-29.696c0 35.2 29.44 38.229333 29.44 38.229334h15.104c30.293333 0 31.658667-34.645333 31.658667-34.645334V391.082667h-46.506667v203.562666z m159.829333-99.029333h30.805334l-23.637334 48.128s-13.738667 26.965333 8.234667 28.074667h51.456l20.608-37.12h-25.6c-3.242667 0-5.461333-3.626667-3.84-6.4l38.229333-75.093334h-44.544l-2.730666 5.546667h-2.773334c-3.285333 0-5.504-3.584-3.84-6.357333l31.914667-61.312h-44.586667l-37.973333 76.458666s-13.738667 27.264 8.277333 28.074667z m6.613334 91.008s-5.76 0.597333-9.386667-3.285333l-23.04 44.330666s3.84 5.205333 11.52 5.205334h57.173333l24.533334-46.208H425.386667z" fill="#FFFFFF" /><path d="M597.845333 452.992h29.44V405.674667h-105.088v47.317333h29.994667v135.296H508.16l-22.272 44.586667h156.501333v-44.586667h-44.544v-135.296z m210.389334 34.901333h-5.461334v-30.506666a51.712 51.712 0 0 0-51.712-51.712h-17.92v-14.592h-45.312V405.333333h-28.629333v46.208h28.629333v36.010667h-45.397333v46.506667h45.397333v98.730666h45.354667v-98.773333h62.421333c6.101333 0 11.050667 4.992 11.050667 11.008v48.725333h-43.178667a38.997333 38.997333 0 0 0 39.04 39.04h11.818667a38.954667 38.954667 0 0 0 39.04-39.04v-61.056a45.226667 45.226667 0 0 0-45.098667-44.842666z m-75.093334-36.010666h16.256a7.04 7.04 0 0 1 7.168 7.125333v28.885333h-23.424v-36.010666z" fill="#FFFFFF" /><path d="M852.309333 428.202667a22.698667 22.698667 0 0 0-22.613333-22.528 22.656 22.656 0 0 0-22.528 22.528v22.570666h22.570667a22.528 22.528 0 0 0 22.570666-22.570666z" fill="#FFFFFF" /></svg>